<svg width="689" height="300" viewBox="0 0 689 300" fill="none" xmlns="http://www.w3.org/2000/svg">
<rect x="50" y="75" width="150" height="150" rx="40" fill="white"/>
<circle cx="125.5" cy="149.5" r="32.5" fill="#131794"/>
<path d="M266.994 175L245.854 126H258.104L276.584 169.4H269.374L288.134 126H299.404L278.194 175H266.994ZM309.641 175V137.34H320.561V175H309.641ZM315.101 132.09C313.094 132.09 311.461 131.507 310.201 130.34C308.941 129.173 308.311 127.727 308.311 126C308.311 124.273 308.941 122.827 310.201 121.66C311.461 120.493 313.094 119.91 315.101 119.91C317.107 119.91 318.741 120.47 320.001 121.59C321.261 122.663 321.891 124.063 321.891 125.79C321.891 127.61 321.261 129.127 320.001 130.34C318.787 131.507 317.154 132.09 315.101 132.09ZM336.995 175V137.34H347.425V147.98L345.955 144.9C347.075 142.24 348.872 140.233 351.345 138.88C353.819 137.48 356.829 136.78 360.375 136.78V146.86C359.909 146.813 359.489 146.79 359.115 146.79C358.742 146.743 358.345 146.72 357.925 146.72C354.939 146.72 352.512 147.583 350.645 149.31C348.825 150.99 347.915 153.627 347.915 157.22V175H336.995ZM382.926 175V135.24H367.246V126H409.946V135.24H394.266V175H382.926ZM420.757 175V137.34H431.187V147.98L429.717 144.9C430.837 142.24 432.634 140.233 435.107 138.88C437.581 137.48 440.591 136.78 444.137 136.78V146.86C443.671 146.813 443.251 146.79 442.877 146.79C442.504 146.743 442.107 146.72 441.687 146.72C438.701 146.72 436.274 147.583 434.407 149.31C432.587 150.99 431.677 153.627 431.677 157.22V175H420.757ZM475.347 175.56C471.054 175.56 467.274 174.72 464.007 173.04C460.787 171.36 458.29 169.073 456.517 166.18C454.744 163.24 453.857 159.903 453.857 156.17C453.857 152.39 454.72 149.053 456.447 146.16C458.22 143.22 460.624 140.933 463.657 139.3C466.69 137.62 470.12 136.78 473.947 136.78C477.634 136.78 480.947 137.573 483.887 139.16C486.874 140.7 489.23 142.94 490.957 145.88C492.684 148.773 493.547 152.25 493.547 156.31C493.547 156.73 493.524 157.22 493.477 157.78C493.43 158.293 493.384 158.783 493.337 159.25H462.747V152.88H487.597L483.397 154.77C483.397 152.81 483 151.107 482.207 149.66C481.414 148.213 480.317 147.093 478.917 146.3C477.517 145.46 475.884 145.04 474.017 145.04C472.15 145.04 470.494 145.46 469.047 146.3C467.647 147.093 466.55 148.237 465.757 149.73C464.964 151.177 464.567 152.903 464.567 154.91V156.59C464.567 158.643 465.01 160.463 465.897 162.05C466.83 163.59 468.114 164.78 469.747 165.62C471.427 166.413 473.387 166.81 475.627 166.81C477.634 166.81 479.384 166.507 480.877 165.9C482.417 165.293 483.817 164.383 485.077 163.17L490.887 169.47C489.16 171.43 486.99 172.947 484.377 174.02C481.764 175.047 478.754 175.56 475.347 175.56ZM530.007 136.78C532.994 136.78 535.654 137.387 537.987 138.6C540.367 139.767 542.234 141.587 543.587 144.06C544.94 146.487 545.617 149.613 545.617 153.44V175H534.697V155.12C534.697 152.087 534.02 149.847 532.667 148.4C531.36 146.953 529.494 146.23 527.067 146.23C525.34 146.23 523.777 146.603 522.377 147.35C521.024 148.05 519.95 149.147 519.157 150.64C518.41 152.133 518.037 154.047 518.037 156.38V175H507.117V137.34H517.547V147.77L515.587 144.62C516.94 142.1 518.877 140.163 521.397 138.81C523.917 137.457 526.787 136.78 530.007 136.78ZM578.259 175.56C574.712 175.56 571.516 174.767 568.669 173.18C565.822 171.547 563.559 169.283 561.879 166.39C560.246 163.497 559.429 160.09 559.429 156.17C559.429 152.203 560.246 148.773 561.879 145.88C563.559 142.987 565.822 140.747 568.669 139.16C571.516 137.573 574.712 136.78 578.259 136.78C581.432 136.78 584.209 137.48 586.589 138.88C588.969 140.28 590.812 142.403 592.119 145.25C593.426 148.097 594.079 151.737 594.079 156.17C594.079 160.557 593.449 164.197 592.189 167.09C590.929 169.937 589.109 172.06 586.729 173.46C584.396 174.86 581.572 175.56 578.259 175.56ZM580.149 166.6C581.922 166.6 583.532 166.18 584.979 165.34C586.426 164.5 587.569 163.31 588.409 161.77C589.296 160.183 589.739 158.317 589.739 156.17C589.739 153.977 589.296 152.11 588.409 150.57C587.569 149.03 586.426 147.84 584.979 147C583.532 146.16 581.922 145.74 580.149 145.74C578.329 145.74 576.696 146.16 575.249 147C573.802 147.84 572.636 149.03 571.749 150.57C570.909 152.11 570.489 153.977 570.489 156.17C570.489 158.317 570.909 160.183 571.749 161.77C572.636 163.31 573.802 164.5 575.249 165.34C576.696 166.18 578.329 166.6 580.149 166.6ZM590.019 175V167.3L590.229 156.1L589.529 144.97V123.06H600.449V175H590.019Z" fill="white"/>
</svg>
